<svg width="31" height="22" viewBox="0 0 31 22" fill="none" xmlns="http://www.w3.org/2000/svg">
<path d="M8.66612 8.90088C8.65601 9.21787 8.69645 9.53485 8.77734 9.84127C8.86834 10.1054 8.97956 10.359 9.10088 10.602C9.14133 10.676 9.17166 10.7605 9.17166 10.8451C9.16155 10.9719 9.09077 11.0987 8.97956 11.1621L8.34257 11.6058C8.26169 11.6587 8.17069 11.7009 8.07969 11.7009C7.96847 11.6904 7.85726 11.6375 7.77637 11.553C7.64493 11.4051 7.51349 11.236 7.41238 11.0564C7.31127 10.8768 7.21016 10.676 7.09894 10.433C6.3103 11.4051 5.31944 11.8911 4.12637 11.8911C3.27706 11.8911 2.59964 11.6375 2.10421 11.1304C1.60878 10.6232 1.35601 9.94694 1.35601 9.10164C1.35601 8.20351 1.65933 7.47444 2.27609 6.925C2.89285 6.37555 3.71182 6.10083 4.75324 6.10083C5.10712 6.10083 5.4711 6.13253 5.82498 6.18536C6.19908 6.23819 6.58329 6.32272 6.98773 6.41782V5.64648C6.98773 4.84345 6.82595 4.28344 6.51252 3.95589C6.19908 3.62833 5.64299 3.46984 4.86446 3.46984C4.50047 3.46984 4.12637 3.51211 3.77249 3.6072C3.39839 3.7023 3.0344 3.81853 2.68052 3.96645C2.5693 4.01928 2.44797 4.06155 2.32664 4.10381C2.27609 4.12495 2.21543 4.13551 2.16487 4.13551C2.02332 4.13551 1.95254 4.02985 1.95254 3.80796V3.29022C1.94243 3.16342 1.97277 3.03663 2.02332 2.9204C2.10421 2.8253 2.1952 2.75134 2.30642 2.69851C2.71085 2.48718 3.13551 2.32869 3.58038 2.22303C4.09604 2.08567 4.63191 2.02227 5.15767 2.02227C6.36086 2.02227 7.2405 2.30756 7.8067 2.87813C8.37291 3.44871 8.6459 4.31514 8.6459 5.47742V8.90088H8.66612ZM4.56113 10.5069C4.91501 10.5069 5.26889 10.4435 5.60255 10.3168C5.97665 10.1794 6.30019 9.94694 6.56307 9.64052C6.72484 9.45032 6.84617 9.21787 6.90684 8.96428C6.97762 8.66842 7.00795 8.35144 7.00795 8.04502V7.60123C6.70462 7.52727 6.39119 7.46387 6.07775 7.42161C5.76432 7.37934 5.44077 7.35821 5.12734 7.35821C4.44991 7.35821 3.95448 7.49557 3.62083 7.78086C3.28717 8.06615 3.1254 8.46766 3.1254 8.99598C3.1254 9.49259 3.24673 9.86241 3.4995 10.116C3.75227 10.3696 4.09604 10.5069 4.56113 10.5069ZM12.6801 11.6481C12.5487 11.6587 12.4071 11.627 12.2959 11.5424C12.1948 11.4262 12.1139 11.2888 12.0836 11.1304L9.70753 2.96266C9.65698 2.8253 9.62665 2.68794 9.61654 2.54001C9.60642 2.41322 9.68731 2.29699 9.80864 2.27586H10.8602C11.0523 2.27586 11.1837 2.30756 11.2545 2.38152C11.3253 2.45548 11.396 2.59284 11.4567 2.7936L13.1452 9.78844L14.7225 2.7936C14.773 2.58228 14.8337 2.44492 14.9146 2.38152C15.0359 2.30756 15.1775 2.26529 15.319 2.27586H16.1279C16.32 2.27586 16.4514 2.30756 16.5323 2.38152C16.6334 2.49775 16.7042 2.63511 16.7244 2.7936L18.3219 9.87297L20.0711 2.7936C20.1014 2.63511 20.1722 2.49775 20.2733 2.38152C20.3947 2.30756 20.5261 2.26529 20.6676 2.27586H21.608C21.7293 2.25473 21.8405 2.34982 21.8607 2.47662V2.54001C21.8607 2.59284 21.8506 2.65624 21.8405 2.70907C21.8203 2.80417 21.8001 2.8887 21.7697 2.97323L19.333 11.1409C19.2724 11.3522 19.2016 11.4896 19.1207 11.553C19.0095 11.627 18.8679 11.6692 18.7365 11.6587H17.867C17.6749 11.6587 17.5434 11.627 17.4625 11.553C17.3614 11.4368 17.2906 11.2888 17.2704 11.1304L15.7032 4.31514L14.1462 11.1198C14.126 11.2783 14.0552 11.4262 13.9541 11.5424C13.8327 11.627 13.6912 11.6587 13.5496 11.6481H12.6801ZM25.6725 11.9334C25.1467 11.9334 24.621 11.87 24.1154 11.7432C23.6099 11.6164 23.2156 11.479 22.9527 11.3205C22.8213 11.2571 22.71 11.1515 22.6393 11.0247C22.5988 10.9296 22.5786 10.8345 22.5786 10.7288V10.19C22.5786 9.96807 22.6595 9.86241 22.8111 9.86241C22.8718 9.86241 22.9325 9.87297 22.9931 9.8941C23.0538 9.91524 23.1448 9.9575 23.2459 9.99977C23.5998 10.1688 23.9739 10.2851 24.3581 10.3696C24.7524 10.4541 25.1568 10.4964 25.5613 10.4964C26.1983 10.4964 26.6937 10.3802 27.0375 10.1477C27.3711 9.93637 27.5733 9.55599 27.5632 9.1439C27.5733 8.86918 27.4722 8.60503 27.2902 8.40427C27.1082 8.20351 26.7645 8.02388 26.269 7.85482L24.803 7.37934C24.0649 7.13632 23.5189 6.77707 23.1852 6.30159C22.8617 5.85781 22.6797 5.3295 22.6797 4.76949C22.6696 4.3574 22.7606 3.95589 22.9527 3.59664C23.1347 3.25852 23.3773 2.96266 23.6807 2.73021C23.9941 2.47662 24.348 2.29699 24.7322 2.18076C25.1467 2.05397 25.5714 1.99057 26.0062 2.00114C26.2286 2.00114 26.4611 2.0117 26.6836 2.0434C26.9161 2.0751 27.1285 2.11736 27.3408 2.15963C27.5531 2.20189 27.7351 2.26529 27.9171 2.32869C28.0688 2.38152 28.2103 2.44492 28.3418 2.51888C28.4631 2.58228 28.5642 2.66681 28.6451 2.78304C28.7159 2.8887 28.7462 3.00493 28.7361 3.13172V3.62833C28.7361 3.85023 28.6552 3.96645 28.5035 3.96645C28.3721 3.94532 28.2406 3.90306 28.1193 3.83966C27.5127 3.55437 26.8454 3.41701 26.178 3.42758C25.6017 3.42758 25.1467 3.52267 24.8333 3.72343C24.5199 3.92419 24.3581 4.23061 24.3581 4.66382C24.348 4.94911 24.4592 5.22383 24.6614 5.41403C24.8636 5.61478 25.2377 5.81554 25.7736 5.99517L27.2093 6.47065C27.9373 6.71367 28.4631 7.05179 28.7765 7.48501C29.09 7.90766 29.2517 8.43597 29.2416 8.96428C29.2517 9.38693 29.1607 9.80958 28.9787 10.19C28.7967 10.5492 28.544 10.8662 28.2406 11.1198C27.907 11.3945 27.5228 11.5953 27.1183 11.7115C26.6532 11.8594 26.1679 11.9334 25.6725 11.9334Z" fill="#252F3E"/>
<path d="M27.584 17.0694C24.2576 19.637 19.4246 21 15.2691 21C9.44523 21 4.19772 18.7494 0.234287 15.009C-0.079148 14.7131 0.203955 14.3116 0.578054 14.544C4.86504 17.1433 10.153 18.7177 15.6229 18.7177C19.5661 18.6966 23.4689 17.8618 27.0987 16.2663C27.6548 16.0022 28.13 16.6467 27.584 17.0694Z" fill="#FF9900"/>
<path d="M28.9689 15.4224C28.5443 14.8519 26.1581 15.1477 25.0763 15.2851C24.7527 15.3273 24.7022 15.0315 24.9954 14.8096C26.8962 13.4148 30.0205 13.8164 30.3845 14.2813C30.7484 14.7462 30.2833 18.0217 28.5038 19.5855C28.2309 19.8285 27.968 19.7018 28.0893 19.3848C28.4937 18.3387 29.3936 15.9824 28.9689 15.4224Z" fill="#FF9900"/>
</svg>
