<svg width="23" height="21" viewBox="0 0 23 21" fill="none" xmlns="http://www.w3.org/2000/svg">
<path d="M3.60902 20.2059C3.96992 20.402 4.35088 20.5 4.75188 20.5H18.1053C18.4662 20.5 18.8471 20.402 19.2481 20.2059V14.0882H1.98496" fill="#4285F4"/>
<path d="M7.81955 0.794118C8.18045 0.598039 8.58145 0.5 9.02256 0.5H13.8346C14.3158 0.5 14.7168 0.598039 15.0376 0.794118V6.91176H10.9474" fill="#188038"/>
<path d="M0 14.0882C0 13.6961 0.100251 13.3235 0.300752 12.9706L6.91729 1.73529C7.1579 1.30392 7.45865 0.990196 7.81955 0.794118L11.4286 6.91176L7.09774 14.2647" fill="#34A853"/>
<path d="M15.0376 0.794118C15.4386 1.02941 15.7393 1.34314 15.9398 1.73529L22.3759 12.6765C22.6967 13.1471 22.8571 13.6176 22.8571 14.0882L15.7594 14.2647L11.4286 6.91176" fill="#FBBC04"/>
<path d="M7.20084 14.0882H0C0 14.402 0.0601504 14.6961 0.180451 14.9706L2.58647 19.0882C2.86717 19.598 3.20802 19.9706 3.60902 20.2059" fill="#1967D2"/>
<path d="M19.2481 20.2059C19.609 20.0098 19.9298 19.6765 20.2105 19.2059L22.4962 15.3235C22.7368 14.9314 22.8571 14.5196 22.8571 14.0882H15.6571" fill="#EA4335"/>
</svg>
