<svg width="216" height="22" viewBox="0 0 216 22" fill="none" xmlns="http://www.w3.org/2000/svg">
<path d="M33.1856 6.73268C33.5829 6.34167 34.0315 6.05321 34.5314 5.86732C35.0313 5.68143 35.5376 5.58528 36.0439 5.58528C36.6719 5.58528 37.2679 5.71989 37.8319 5.98911C38.3959 6.25834 38.8829 6.64294 39.2803 7.14293C39.6776 7.64292 39.9019 8.23906 39.9532 8.93135V9.13647H31.9743C32.032 8.81596 32.1153 8.5211 32.2178 8.24547C32.4614 7.61728 32.7882 7.11088 33.1856 6.71986M41.8117 10.63C42.0168 10.4505 42.1194 10.2262 42.1194 9.95696C42.1001 8.98904 41.9271 8.13008 41.5874 7.36728C41.2478 6.60448 40.7992 5.94424 40.2416 5.38657C39.684 4.82889 39.0368 4.40582 38.3126 4.11737C37.582 3.82891 36.8321 3.68789 36.0503 3.68789C34.9992 3.68789 34.0059 3.96352 33.0638 4.51479C32.1217 5.06606 31.359 5.86091 30.7759 6.90576C30.1927 7.94419 29.8979 9.20698 29.8979 10.6813C29.8979 12.0018 30.1798 13.1684 30.7374 14.1748C31.295 15.1812 32.0832 15.976 33.1022 16.5529C34.1212 17.1299 35.3133 17.4183 36.6847 17.4183C37.6012 17.4183 38.46 17.226 39.2611 16.835C40.0622 16.444 40.7158 15.9889 41.2029 15.4632C41.4721 15.2261 41.6067 14.9632 41.6067 14.6748C41.6067 14.4376 41.5234 14.2325 41.3503 14.0658C41.1837 13.8992 40.9786 13.8094 40.7415 13.8094C40.5236 13.8094 40.2993 13.8863 40.0814 14.0402C39.8635 14.2774 39.5943 14.5081 39.2803 14.7389C38.9663 14.9697 38.5881 15.1555 38.1523 15.3094C37.7101 15.4632 37.1974 15.5402 36.6014 15.5402C35.6529 15.5402 34.8262 15.3222 34.1148 14.8927C33.4034 14.4633 32.8459 13.8735 32.4485 13.13C32.1025 12.4825 31.9102 11.7454 31.8653 10.9185H41.1004C41.3695 10.9185 41.6067 10.8287 41.8117 10.6492" fill="#040305"/>
<path d="M55.577 10.5424C55.577 9.56165 55.3783 8.7027 54.9809 7.96553C54.5836 7.22837 54.0388 6.64506 53.3531 6.21558C52.6674 5.7861 51.8983 5.56816 51.0524 5.56816C50.2064 5.56816 49.4117 5.7861 48.726 6.21558C48.0402 6.64506 47.4955 7.23478 47.0853 7.96553C46.6816 8.7027 46.4765 9.56165 46.4765 10.5424C46.4765 11.5231 46.6816 12.3629 47.0853 13.1064C47.4891 13.85 48.0402 14.4397 48.726 14.8692C49.4117 15.2987 50.1872 15.5166 51.0524 15.5166C51.9175 15.5166 52.6674 15.2987 53.3531 14.8692C54.0388 14.4397 54.5836 13.85 54.9809 13.1064C55.3783 12.3629 55.577 11.5039 55.577 10.5424ZM57.6342 10.5424C57.6342 11.8629 57.3394 13.0423 56.7562 14.0744C56.173 15.1064 55.3847 15.9205 54.3913 16.5102C53.4044 17.0999 52.2893 17.4012 51.0524 17.4012C49.8155 17.4012 48.7003 17.1063 47.7006 16.5102C46.7008 15.9205 45.9125 15.1064 45.3229 14.0744C44.7397 13.0423 44.4449 11.8629 44.4449 10.5424C44.4449 9.22191 44.7397 8.04246 45.3229 7.01043C45.9061 5.97841 46.7008 5.16432 47.7006 4.5746C48.7003 3.98487 49.8155 3.68359 51.0524 3.68359C52.2893 3.68359 53.4044 3.97846 54.3913 4.5746C55.3847 5.17073 56.1666 5.97841 56.7562 7.01043C57.3394 8.04246 57.6342 9.22191 57.6342 10.5424Z" fill="#040305"/>
<path d="M59.9152 15.068C59.7806 14.85 59.7165 14.6129 59.7229 14.3693C59.7293 14.1257 59.8703 13.9078 60.1395 13.7219C60.3253 13.6065 60.5304 13.5552 60.7611 13.568C60.9918 13.5873 61.1969 13.6962 61.3828 13.9014C61.857 14.459 62.3954 14.9077 63.0106 15.2346C63.6194 15.568 64.3628 15.7282 65.2473 15.7282C65.6382 15.709 66.0355 15.6449 66.4521 15.5231C66.8687 15.4077 67.2147 15.1962 67.4903 14.9013C67.7723 14.6065 67.9069 14.209 67.9069 13.7219C67.9069 13.2347 67.7659 12.8693 67.4775 12.5937C67.1891 12.3116 66.811 12.0873 66.3496 11.9078C65.8817 11.7283 65.3883 11.5745 64.8627 11.4399C64.3052 11.286 63.754 11.1194 63.2093 10.9335C62.6645 10.7476 62.1775 10.504 61.7481 10.2091C61.3187 9.91427 60.9662 9.54249 60.7099 9.09378C60.4471 8.64508 60.3189 8.0874 60.3189 7.42716C60.3189 6.66436 60.524 6.00412 60.9406 5.44644C61.3571 4.88876 61.9083 4.45288 62.6068 4.1516C63.299 3.84392 64.068 3.69648 64.9204 3.69648C65.3947 3.69648 65.8881 3.75418 66.4072 3.86315C66.9199 3.97212 67.4262 4.15801 67.9197 4.42082C68.4132 4.68364 68.8426 5.0426 69.2143 5.49772C69.3681 5.66438 69.4514 5.87592 69.4706 6.13232C69.4899 6.38872 69.3745 6.61308 69.1374 6.8182C68.9515 6.95281 68.74 7.01691 68.5157 7.0105C68.285 7.00409 68.0992 6.92076 67.9453 6.76692C67.5736 6.32462 67.1186 5.9913 66.5867 5.76053C66.0548 5.52977 65.4652 5.4208 64.8243 5.4208C64.4333 5.4208 64.0488 5.4849 63.6579 5.6131C63.267 5.7413 62.9401 5.94002 62.6773 6.20924C62.4146 6.47846 62.2864 6.86307 62.2864 7.35024C62.3056 7.80535 62.453 8.18355 62.7414 8.46559C63.0298 8.75405 63.4208 8.98481 63.9078 9.16429C64.4013 9.34377 64.9396 9.51685 65.5357 9.68351C66.0804 9.81812 66.5995 9.97837 67.0994 10.1514C67.5993 10.3309 68.0543 10.5617 68.458 10.8501C68.8618 11.1386 69.1886 11.504 69.4258 11.9527C69.6629 12.4014 69.7783 12.9655 69.7783 13.6449C69.7783 14.427 69.5604 15.1 69.1181 15.6641C68.6759 16.2346 68.0992 16.6641 67.3814 16.959C66.6636 17.2538 65.8881 17.4013 65.055 17.4013C64.1257 17.4013 63.2029 17.2282 62.2864 16.882C61.37 16.5359 60.5881 15.9269 59.9216 15.068" fill="#040305"/>
<path d="M78.5336 3.67923C79.4116 3.67923 80.1999 3.77538 80.8984 3.96127C81.5906 4.14716 82.1417 4.40357 82.5519 4.72407C82.9557 5.04458 83.1607 5.40995 83.1607 5.81379C83.1607 6.05096 83.0838 6.2689 82.93 6.47403C82.7762 6.67915 82.5647 6.78171 82.2955 6.78171C82.0776 6.78171 81.8918 6.73684 81.7508 6.64069C81.6034 6.55095 81.4688 6.43557 81.3471 6.30736C81.2189 6.17916 81.0458 6.05737 80.8279 5.94199C80.6229 5.83943 80.3281 5.74969 79.9371 5.67276C79.5462 5.59584 79.1553 5.55738 78.7707 5.55738C77.8415 5.55738 77.0211 5.77533 76.3226 6.21762C75.6176 6.65992 75.0665 7.24965 74.6563 7.99322C74.2526 8.73679 74.0475 9.58292 74.0475 10.5316C74.0475 11.4803 74.2397 12.3264 74.6307 13.07C75.0216 13.8136 75.5599 14.4097 76.2585 14.8456C76.9506 15.2879 77.7581 15.5058 78.6746 15.5058C79.2706 15.5058 79.7385 15.4546 80.0845 15.352C80.4306 15.2494 80.7318 15.1341 80.9882 14.993C81.2766 14.8264 81.5009 14.6533 81.6611 14.4866C81.8213 14.32 82.0456 14.2302 82.334 14.2302C82.6224 14.2302 82.8467 14.3264 83.0069 14.5123C83.1671 14.6982 83.2505 14.9289 83.2505 15.1982C83.2505 15.5187 83.039 15.852 82.616 16.1917C82.193 16.5315 81.6162 16.8135 80.892 17.0443C80.1614 17.275 79.3539 17.384 78.4567 17.384C77.1685 17.384 76.047 17.0827 75.0793 16.4802C74.1116 15.8776 73.3681 15.0571 72.8298 14.0187C72.2979 12.9739 72.0287 11.8136 72.0287 10.5252C72.0287 9.23678 72.3043 8.07655 72.8554 7.04452C73.4066 6.0125 74.1692 5.19201 75.1562 4.58305C76.1367 3.97409 77.2711 3.66641 78.5592 3.66641" fill="#040305"/>
<path d="M11.3171 4.78613C10.2083 4.0682 8.92017 3.68359 7.59356 3.68359C6.26694 3.68359 4.97878 4.06179 3.87007 4.78613C3.64576 4.93356 3.49836 5.17073 3.46631 5.44637C3.43427 5.722 3.5304 5.99764 3.72907 6.18994L4.10078 6.56172C4.28023 6.74121 4.51094 6.83095 4.74166 6.83095C4.90188 6.83095 5.0685 6.78608 5.21591 6.69634C5.93369 6.25404 6.75401 6.02328 7.59356 6.02328C8.43311 6.02328 9.25343 6.25404 9.97121 6.69634C10.3301 6.91428 10.7851 6.863 11.0863 6.56172L11.458 6.18994C11.6567 5.99123 11.7528 5.722 11.7208 5.44637C11.6888 5.17714 11.5478 4.93356 11.3171 4.78613Z" fill="#008DD1"/>
<path d="M6.53711 15.0208C4.46067 14.5272 3.01229 12.694 3.01229 10.5594C3.01229 9.71326 3.24942 8.88636 3.69162 8.16202C3.90311 7.82229 3.85184 7.37999 3.56345 7.09154L3.19174 6.71975C3.00589 6.53386 2.74313 6.43771 2.47396 6.46976C2.2112 6.4954 1.98048 6.63642 1.83949 6.85436C1.12171 7.9569 0.75 9.23892 0.75 10.5594C0.75 13.758 3.0187 16.5721 6.15259 17.2515C6.21027 17.2644 6.27436 17.2708 6.33203 17.2708C6.5243 17.2708 6.71656 17.2067 6.87037 17.0785C7.08186 16.9118 7.19722 16.6618 7.19722 16.3926V15.8734C7.19722 15.4695 6.92164 15.1106 6.54352 15.0208" fill="#EB5A38"/>
<path d="M19.0219 3.71367C15.2471 3.71367 12.1773 6.78411 12.1773 10.5596V10.6238C12.1453 12.7711 10.5944 14.6365 8.4923 15.0531C8.20391 15.1108 7.99883 15.3672 7.99883 15.6557V16.7005C7.99883 16.8864 8.07573 17.0595 8.21673 17.1749C8.35131 17.2902 8.53075 17.3415 8.70379 17.3095C12.0299 16.7646 14.4396 13.9249 14.4396 10.5532C14.4396 8.02766 16.4969 5.97002 19.0219 5.97002C21.547 5.97002 23.6042 8.02766 23.6042 10.5532C23.6042 13.0788 21.547 15.1365 19.0219 15.1365C18.4003 15.1365 17.8876 15.6429 17.8876 16.271C17.8876 16.8992 18.3938 17.4056 19.0219 17.4056C22.7967 17.4056 25.8665 14.3352 25.8665 10.5596C25.8665 6.78411 22.7967 3.71367 19.0219 3.71367Z" fill="#008DD1"/>
<path d="M92.8975 0V22H92.4385V0H92.8975Z" fill="black" fill-opacity="0.5"/>
<path d="M129.707 17.1902C130.928 17.1778 131.993 16.9241 132.91 16.4291C133.827 15.934 134.531 15.2286 135.028 14.3004C135.525 13.3785 135.77 12.3018 135.77 11.0766V10.2474C135.77 9.05314 135.512 7.98883 135.021 7.06683C134.524 6.14484 133.827 5.43324 132.916 4.93202C132.006 4.43081 130.966 4.18329 129.785 4.18329H125.949V17.1964H129.707V17.1902ZM129.83 5.58175C131.16 5.59412 132.187 6.00871 132.91 6.8317C133.633 7.64849 133.995 8.79944 133.995 10.2783V11.0394C133.995 12.5617 133.614 13.7312 132.845 14.5541C132.077 15.3771 131.005 15.7855 129.623 15.7855H127.738V5.58175H129.83ZM146.237 17.1902V17.0479C145.998 16.5219 145.882 15.8165 145.882 14.9316V10.4825C145.856 9.50485 145.514 8.73756 144.855 8.18065C144.197 7.62374 143.286 7.34529 142.124 7.34529C141.388 7.34529 140.716 7.47523 140.103 7.74131C139.49 8.0012 139.005 8.3601 138.65 8.81181C138.295 9.26353 138.114 9.72761 138.114 10.2103H139.851C139.851 9.78949 140.058 9.42441 140.477 9.12739C140.891 8.83037 141.407 8.68187 142.027 8.68187C142.731 8.68187 143.26 8.85513 143.622 9.19546C143.984 9.53579 144.164 9.99988 144.164 10.5754V11.3365H142.486C141.039 11.3365 139.916 11.6149 139.115 12.1718C138.314 12.7287 137.914 13.5084 137.914 14.517C137.914 15.3462 138.23 16.0269 138.87 16.5652C139.509 17.1035 140.322 17.3758 141.317 17.3758C142.427 17.3758 143.389 16.9798 144.19 16.1816C144.255 16.6704 144.332 17.0107 144.436 17.2025H146.243L146.237 17.1902ZM140.174 15.4885C139.812 15.1977 139.632 14.7893 139.632 14.2757C139.632 13.0876 140.691 12.4998 142.802 12.4998H144.151V14.4861C143.932 14.913 143.583 15.2657 143.099 15.5318C142.615 15.7979 142.105 15.934 141.562 15.934C141.02 15.934 140.536 15.7855 140.174 15.4947V15.4885ZM149.201 5.17954V7.51855H147.36V8.79325H149.201V14.7893C149.201 15.6123 149.394 16.2434 149.788 16.6951C150.182 17.1407 150.763 17.3634 151.532 17.3634C151.958 17.3634 152.403 17.3016 152.855 17.184V15.8536C152.507 15.9279 152.235 15.9588 152.035 15.9588C151.628 15.9588 151.344 15.8598 151.177 15.668C151.009 15.4761 150.925 15.1853 150.925 14.7955V8.79325H152.81V7.51855H150.925V5.17954H149.201ZM162.863 17.1902V17.0479C162.625 16.5219 162.508 15.8165 162.508 14.9316V10.4825C162.483 9.50485 162.14 8.73756 161.482 8.18065C160.823 7.62374 159.913 7.34529 158.75 7.34529C158.014 7.34529 157.343 7.47523 156.729 7.74131C156.116 8.0012 155.632 8.3601 155.277 8.81181C154.922 9.26353 154.741 9.72761 154.741 10.2103H156.478C156.478 9.78949 156.684 9.42441 157.104 9.12739C157.524 8.83037 158.034 8.68187 158.654 8.68187C159.357 8.68187 159.887 8.85513 160.248 9.19546C160.61 9.53579 160.791 9.99988 160.791 10.5754V11.3365H159.112C157.666 11.3365 156.542 11.6149 155.742 12.1718C154.941 12.7287 154.547 13.5084 154.547 14.517C154.547 15.3462 154.863 16.0269 155.503 16.5652C156.142 17.1035 156.955 17.3758 157.95 17.3758C159.06 17.3758 160.022 16.9798 160.823 16.1816C160.888 16.6704 160.965 17.0107 161.068 17.2025H162.876L162.863 17.1902ZM156.8 15.4885C156.439 15.1977 156.258 14.7893 156.258 14.2757C156.258 13.0876 157.317 12.4998 159.428 12.4998H160.778V14.4861C160.558 14.913 160.21 15.2657 159.725 15.5318C159.241 15.7979 158.725 15.934 158.189 15.934C157.653 15.934 157.162 15.7855 156.8 15.4947V15.4885ZM175.506 10.7115H170.586V12.1161H173.73V15.0306C173.401 15.3709 172.988 15.6123 172.484 15.7546C171.981 15.8969 171.393 15.9712 170.722 15.9712C169.533 15.9712 168.591 15.538 167.893 14.6779C167.196 13.8178 166.847 12.6545 166.847 11.1941V10.1298C166.854 8.59524 167.164 7.42573 167.784 6.62131C168.404 5.8107 169.314 5.40849 170.508 5.40849C172.31 5.40849 173.382 6.27479 173.718 8.0012H175.506C175.312 6.7265 174.783 5.74263 173.924 5.04959C173.059 4.35655 171.916 4.01003 170.502 4.01003C168.772 4.01003 167.435 4.54838 166.479 5.62506C165.524 6.70175 165.046 8.22396 165.046 10.1793V11.3117C165.059 12.5183 165.298 13.5827 165.769 14.5046C166.24 15.4204 166.899 16.132 167.758 16.6271C168.617 17.1221 169.598 17.3758 170.702 17.3758C171.806 17.3758 172.755 17.2211 173.582 16.9055C174.408 16.59 175.048 16.1197 175.506 15.4885V10.7115ZM180.284 9.77093V5.58175H187.025V4.1771H178.496V17.1902H187.122V15.7855H180.291V11.1756H186.173V9.77093H180.284ZM189.343 4.1771V17.1902H191.132V12.1223L190.957 6.68319L195.406 17.1902H196.775L201.23 6.65225L201.062 12.1223V17.1902H202.851V4.1771H200.527L196.091 14.7955L191.655 4.1771H189.343ZM212.549 12.4193C213.014 12.7659 213.247 13.2609 213.247 13.8982C213.247 14.5356 212.995 15.0368 212.491 15.4081C211.988 15.7793 211.264 15.965 210.322 15.965C209.308 15.965 208.501 15.736 207.894 15.2843C207.287 14.8264 206.983 14.2076 206.983 13.4218H205.182C205.182 14.1767 205.402 14.8574 205.841 15.4514C206.28 16.0454 206.9 16.5157 207.707 16.856C208.514 17.1964 209.385 17.3696 210.315 17.3696C211.749 17.3696 212.898 17.054 213.757 16.4167C214.616 15.7793 215.042 14.9378 215.042 13.8859C215.042 13.2238 214.887 12.6483 214.583 12.1594C214.273 11.6706 213.802 11.2436 213.163 10.8786C212.523 10.5135 211.645 10.1793 210.515 9.86994C209.385 9.56673 208.591 9.23259 208.12 8.86131C207.649 8.49623 207.416 8.04452 207.416 7.51236C207.416 6.85026 207.661 6.33048 208.159 5.95921C208.656 5.58794 209.34 5.4023 210.225 5.4023C211.174 5.4023 211.91 5.62506 212.433 6.07678C212.956 6.52849 213.214 7.14728 213.214 7.93932H215.016C215.016 7.22153 214.816 6.55324 214.415 5.94683C214.015 5.34042 213.447 4.86396 212.717 4.51744C211.988 4.17092 211.155 3.99766 210.225 3.99766C208.856 3.99766 207.745 4.3318 206.893 5.00009C206.041 5.66838 205.608 6.51612 205.608 7.5433C205.608 8.44673 205.957 9.20783 206.654 9.82662C207.352 10.4454 208.469 10.9652 210.005 11.386C211.232 11.7263 212.078 12.0666 212.543 12.4193H212.549Z" fill="#040305"/>
<path d="M109.658 2.13711H104.092C103.911 2.13711 103.743 2.21755 103.64 2.3475L99.6173 7.44629C99.5592 7.52055 99.5204 7.60718 99.5075 7.70618V7.76187C99.5075 7.87944 99.5463 7.99701 99.6173 8.08983L109.199 19.5497C109.225 19.5807 109.257 19.6116 109.277 19.6302C109.322 19.6673 109.374 19.6983 109.438 19.723C109.496 19.7416 109.554 19.7539 109.638 19.7539C109.638 19.7539 109.638 19.7539 109.645 19.7539V17.5077V17.5263L106.423 8.29403H109.645V7.2359H106.358L107.779 3.19523H109.645V2.13711H109.658ZM101.225 8.29403H105.254L108.127 16.5486L101.225 8.29403ZM106.604 3.19523L105.183 7.24209H101.186L104.382 3.19523H106.61H106.604Z" fill="#008DD1"/>
<path d="M119.842 7.69999C119.829 7.60718 119.797 7.52055 119.739 7.45248L115.716 2.35368C115.613 2.21755 115.445 2.13711 115.264 2.13711H109.672V3.19523H111.564L112.985 7.2359H109.672V8.29403H112.92L109.705 17.5263L109.672 17.4273V19.7539H109.705C109.769 19.7539 109.84 19.7478 109.911 19.723C109.969 19.6983 110.021 19.6673 110.06 19.6364C110.092 19.6116 110.118 19.5869 110.144 19.5559L119.726 8.09602C119.803 8.0032 119.842 7.89182 119.842 7.76806V7.69999ZM114.089 8.29403H118.118L111.216 16.5486L114.089 8.29403ZM114.166 7.2359L112.746 3.18905H114.973L118.17 7.2359H114.166Z" fill="#EB5A38"/>
</svg>
