<svg width="117" height="22" viewBox="99 0 117 22" fill="none" xmlns="http://www.w3.org/2000/svg">
<path d="M129.707 17.1902C130.928 17.1778 131.993 16.9241 132.91 16.4291C133.827 15.934 134.531 15.2286 135.028 14.3004C135.525 13.3785 135.77 12.3018 135.77 11.0766V10.2474C135.77 9.05314 135.512 7.98883 135.021 7.06683C134.524 6.14484 133.827 5.43324 132.916 4.93202C132.006 4.43081 130.966 4.18329 129.785 4.18329H125.949V17.1964H129.707V17.1902ZM129.83 5.58175C131.16 5.59412 132.187 6.00871 132.91 6.8317C133.633 7.64849 133.995 8.79944 133.995 10.2783V11.0394C133.995 12.5617 133.614 13.7312 132.845 14.5541C132.077 15.3771 131.005 15.7855 129.623 15.7855H127.738V5.58175H129.83ZM146.237 17.1902V17.0479C145.998 16.5219 145.882 15.8165 145.882 14.9316V10.4825C145.856 9.50485 145.514 8.73756 144.855 8.18065C144.197 7.62374 143.286 7.34529 142.124 7.34529C141.388 7.34529 140.716 7.47523 140.103 7.74131C139.49 8.0012 139.005 8.3601 138.65 8.81181C138.295 9.26353 138.114 9.72761 138.114 10.2103H139.851C139.851 9.78949 140.058 9.42441 140.477 9.12739C140.891 8.83037 141.407 8.68187 142.027 8.68187C142.731 8.68187 143.26 8.85513 143.622 9.19546C143.984 9.53579 144.164 9.99988 144.164 10.5754V11.3365H142.486C141.039 11.3365 139.916 11.6149 139.115 12.1718C138.314 12.7287 137.914 13.5084 137.914 14.517C137.914 15.3462 138.23 16.0269 138.87 16.5652C139.509 17.1035 140.322 17.3758 141.317 17.3758C142.427 17.3758 143.389 16.9798 144.19 16.1816C144.255 16.6704 144.332 17.0107 144.436 17.2025H146.243L146.237 17.1902ZM140.174 15.4885C139.812 15.1977 139.632 14.7893 139.632 14.2757C139.632 13.0876 140.691 12.4998 142.802 12.4998H144.151V14.4861C143.932 14.913 143.583 15.2657 143.099 15.5318C142.615 15.7979 142.105 15.934 141.562 15.934C141.02 15.934 140.536 15.7855 140.174 15.4947V15.4885ZM149.201 5.17954V7.51855H147.36V8.79325H149.201V14.7893C149.201 15.6123 149.394 16.2434 149.788 16.6951C150.182 17.1407 150.763 17.3634 151.532 17.3634C151.958 17.3634 152.403 17.3016 152.855 17.184V15.8536C152.507 15.9279 152.235 15.9588 152.035 15.9588C151.628 15.9588 151.344 15.8598 151.177 15.668C151.009 15.4761 150.925 15.1853 150.925 14.7955V8.79325H152.81V7.51855H150.925V5.17954H149.201ZM162.863 17.1902V17.0479C162.625 16.5219 162.508 15.8165 162.508 14.9316V10.4825C162.483 9.50485 162.14 8.73756 161.482 8.18065C160.823 7.62374 159.913 7.34529 158.75 7.34529C158.014 7.34529 157.343 7.47523 156.729 7.74131C156.116 8.0012 155.632 8.3601 155.277 8.81181C154.922 9.26353 154.741 9.72761 154.741 10.2103H156.478C156.478 9.78949 156.684 9.42441 157.104 9.12739C157.524 8.83037 158.034 8.68187 158.654 8.68187C159.357 8.68187 159.887 8.85513 160.248 9.19546C160.61 9.53579 160.791 9.99988 160.791 10.5754V11.3365H159.112C157.666 11.3365 156.542 11.6149 155.742 12.1718C154.941 12.7287 154.547 13.5084 154.547 14.517C154.547 15.3462 154.863 16.0269 155.503 16.5652C156.142 17.1035 156.955 17.3758 157.95 17.3758C159.06 17.3758 160.022 16.9798 160.823 16.1816C160.888 16.6704 160.965 17.0107 161.068 17.2025H162.876L162.863 17.1902ZM156.8 15.4885C156.439 15.1977 156.258 14.7893 156.258 14.2757C156.258 13.0876 157.317 12.4998 159.428 12.4998H160.778V14.4861C160.558 14.913 160.21 15.2657 159.725 15.5318C159.241 15.7979 158.725 15.934 158.189 15.934C157.653 15.934 157.162 15.7855 156.8 15.4947V15.4885ZM175.506 10.7115H170.586V12.1161H173.73V15.0306C173.401 15.3709 172.988 15.6123 172.484 15.7546C171.981 15.8969 171.393 15.9712 170.722 15.9712C169.533 15.9712 168.591 15.538 167.893 14.6779C167.196 13.8178 166.847 12.6545 166.847 11.1941V10.1298C166.854 8.59524 167.164 7.42573 167.784 6.62131C168.404 5.8107 169.314 5.40849 170.508 5.40849C172.31 5.40849 173.382 6.27479 173.718 8.0012H175.506C175.312 6.7265 174.783 5.74263 173.924 5.04959C173.059 4.35655 171.916 4.01003 170.502 4.01003C168.772 4.01003 167.435 4.54838 166.479 5.62506C165.524 6.70175 165.046 8.22396 165.046 10.1793V11.3117C165.059 12.5183 165.298 13.5827 165.769 14.5046C166.24 15.4204 166.899 16.132 167.758 16.6271C168.617 17.1221 169.598 17.3758 170.702 17.3758C171.806 17.3758 172.755 17.2211 173.582 16.9055C174.408 16.59 175.048 16.1197 175.506 15.4885V10.7115ZM180.284 9.77093V5.58175H187.025V4.1771H178.496V17.1902H187.122V15.7855H180.291V11.1756H186.173V9.77093H180.284ZM189.343 4.1771V17.1902H191.132V12.1223L190.957 6.68319L195.406 17.1902H196.775L201.23 6.65225L201.062 12.1223V17.1902H202.851V4.1771H200.527L196.091 14.7955L191.655 4.1771H189.343ZM212.549 12.4193C213.014 12.7659 213.247 13.2609 213.247 13.8982C213.247 14.5356 212.995 15.0368 212.491 15.4081C211.988 15.7793 211.264 15.965 210.322 15.965C209.308 15.965 208.501 15.736 207.894 15.2843C207.287 14.8264 206.983 14.2076 206.983 13.4218H205.182C205.182 14.1767 205.402 14.8574 205.841 15.4514C206.28 16.0454 206.9 16.5157 207.707 16.856C208.514 17.1964 209.385 17.3696 210.315 17.3696C211.749 17.3696 212.898 17.054 213.757 16.4167C214.616 15.7793 215.042 14.9378 215.042 13.8859C215.042 13.2238 214.887 12.6483 214.583 12.1594C214.273 11.6706 213.802 11.2436 213.163 10.8786C212.523 10.5135 211.645 10.1793 210.515 9.86994C209.385 9.56673 208.591 9.23259 208.12 8.86131C207.649 8.49623 207.416 8.04452 207.416 7.51236C207.416 6.85026 207.661 6.33048 208.159 5.95921C208.656 5.58794 209.34 5.4023 210.225 5.4023C211.174 5.4023 211.91 5.62506 212.433 6.07678C212.956 6.52849 213.214 7.14728 213.214 7.93932H215.016C215.016 7.22153 214.816 6.55324 214.415 5.94683C214.015 5.34042 213.447 4.86396 212.717 4.51744C211.988 4.17092 211.155 3.99766 210.225 3.99766C208.856 3.99766 207.745 4.3318 206.893 5.00009C206.041 5.66838 205.608 6.51612 205.608 7.5433C205.608 8.44673 205.957 9.20783 206.654 9.82662C207.352 10.4454 208.469 10.9652 210.005 11.386C211.232 11.7263 212.078 12.0666 212.543 12.4193H212.549Z" fill="#040305"/>
<path d="M109.658 2.13711H104.092C103.911 2.13711 103.743 2.21755 103.64 2.3475L99.6173 7.44629C99.5592 7.52055 99.5204 7.60718 99.5075 7.70618V7.76187C99.5075 7.87944 99.5463 7.99701 99.6173 8.08983L109.199 19.5497C109.225 19.5807 109.257 19.6116 109.277 19.6302C109.322 19.6673 109.374 19.6983 109.438 19.723C109.496 19.7416 109.554 19.7539 109.638 19.7539C109.638 19.7539 109.638 19.7539 109.645 19.7539V17.5077V17.5263L106.423 8.29403H109.645V7.2359H106.358L107.779 3.19523H109.645V2.13711H109.658ZM101.225 8.29403H105.254L108.127 16.5486L101.225 8.29403ZM106.604 3.19523L105.183 7.24209H101.186L104.382 3.19523H106.61H106.604Z" fill="#008DD1"/>
<path d="M119.842 7.69999C119.829 7.60718 119.797 7.52055 119.739 7.45248L115.716 2.35368C115.613 2.21755 115.445 2.13711 115.264 2.13711H109.672V3.19523H111.564L112.985 7.2359H109.672V8.29403H112.92L109.705 17.5263L109.672 17.4273V19.7539H109.705C109.769 19.7539 109.84 19.7478 109.911 19.723C109.969 19.6983 110.021 19.6673 110.06 19.6364C110.092 19.6116 110.118 19.5869 110.144 19.5559L119.726 8.09602C119.803 8.0032 119.842 7.89182 119.842 7.76806V7.69999ZM114.089 8.29403H118.118L111.216 16.5486L114.089 8.29403ZM114.166 7.2359L112.746 3.18905H114.973L118.17 7.2359H114.166Z" fill="#EB5A38"/>
</svg>
