<svg width="30" height="19" viewBox="0 0 30 19" fill="none" xmlns="http://www.w3.org/2000/svg">
<path d="M11.3077 5.27702L17.5339 9.00548L21.2438 7.44384C21.9978 7.11813 22.8107 6.95063 23.6321 6.95172C23.7693 6.95172 23.9046 6.95821 24.039 6.96655C23.5931 5.2272 22.6516 3.65483 21.3288 2.44055C20.0061 1.22628 18.3591 0.422393 16.588 0.126612C14.817 -0.169169 12.9981 0.0558919 11.3526 0.774439C9.70707 1.49299 8.30569 2.67407 7.31881 4.17414L7.41335 4.17136C8.78917 4.16956 10.1381 4.55253 11.3077 5.27702Z" fill="#0364B8"/>
<path d="M11.3086 5.27605C10.1386 4.55173 8.78939 4.16907 7.41334 4.17132L7.31881 4.1741C5.9722 4.19095 4.65562 4.57438 3.51054 5.28322C2.36545 5.99205 1.43515 6.99949 0.819573 8.19729C0.203997 9.39509 -0.0735817 10.738 0.0166608 12.0817C0.106903 13.4254 0.561556 14.7191 1.33177 15.8238L17.5329 9.00544L11.3086 5.27605Z" fill="#0078D4"/>
<path d="M24.039 6.96654C23.9035 6.95706 23.7679 6.95212 23.6321 6.95171C22.811 6.95104 21.9984 7.11885 21.2447 7.44476L17.5338 9.00547L28.9361 15.834C29.4142 14.9466 29.6619 13.9535 29.6567 12.9455C29.6514 11.9375 29.3933 10.947 28.906 10.0647C28.4187 9.1823 27.7178 8.43632 26.8675 7.89505C26.0172 7.35378 25.0446 7.03453 24.039 6.96654Z" fill="#1490DF"/>
<path d="M17.5348 9.00553L1.32993 15.8239C2.01235 16.8049 2.92209 17.6062 3.98145 18.1593C5.04081 18.7124 6.21831 19.0008 7.41336 19H23.6321C24.7197 19.0004 25.7871 18.7063 26.7209 18.1489C27.6548 17.5915 28.4203 16.7916 28.9361 15.8341L17.5348 9.00553Z" fill="#28A8EA"/>
</svg>
