<svg width="22" height="22" viewBox="0 0 22 22" fill="none" xmlns="http://www.w3.org/2000/svg">
<path d="M9.0002 11.9961C9.42965 12.5702 9.97756 13.0452 10.6067 13.389C11.2359 13.7328 11.9317 13.9372 12.6468 13.9884C13.362 14.0396 14.0798 13.9364 14.7515 13.6858C15.4233 13.4353 16.0333 13.0431 16.5402 12.5361L19.5402 9.53606C20.451 8.59305 20.955 7.33004 20.9436 6.01905C20.9322 4.70807 20.4063 3.45401 19.4793 2.52697C18.5523 1.59993 17.2982 1.07408 15.9872 1.06269C14.6762 1.0513 13.4132 1.55527 12.4702 2.46606L10.7502 4.17606M13.0002 9.99606C12.5707 9.42193 12.0228 8.94688 11.3936 8.60312C10.7645 8.25936 10.0687 8.05494 9.35355 8.00373C8.63841 7.95251 7.92061 8.05569 7.24885 8.30628C6.5771 8.55686 5.96709 8.94899 5.4602 9.45606L2.4602 12.4561C1.54941 13.3991 1.04544 14.6621 1.05683 15.9731C1.06822 17.2841 1.59407 18.5381 2.52111 19.4652C3.44815 20.3922 4.70221 20.918 6.01319 20.9294C7.32418 20.9408 8.58719 20.4369 9.5302 19.5261L11.2402 17.8161" stroke="#2B7FFF" stroke-width="1.5" stroke-linecap="round" stroke-linejoin="round"/>
</svg>
