<svg width="24" height="25" viewBox="0 0 24 25" fill="none" xmlns="http://www.w3.org/2000/svg">
<path d="M13.9998 7.5L16.9998 10.5M4.9998 6.5V10.5M18.9998 14.5V18.5M9.9998 2.5V4.5M6.9998 8.5H2.9998M20.9998 16.5H16.9998M10.9998 3.5H8.9998M21.6398 4.14L20.3598 2.86C20.2473 2.74632 20.1133 2.65607 19.9657 2.59448C19.8181 2.53289 19.6598 2.50118 19.4998 2.50118C19.3399 2.50118 19.1815 2.53289 19.0339 2.59448C18.8863 2.65607 18.7523 2.74632 18.6398 2.86L2.3598 19.14C2.24612 19.2525 2.15587 19.3865 2.09428 19.5341C2.03269 19.6817 2.00098 19.8401 2.00098 20C2.00098 20.1599 2.03269 20.3183 2.09428 20.4659C2.15587 20.6135 2.24612 20.7475 2.3598 20.86L3.6398 22.14C3.75162 22.2549 3.88534 22.3462 4.03305 22.4086C4.18076 22.471 4.33947 22.5031 4.4998 22.5031C4.66014 22.5031 4.81885 22.471 4.96656 22.4086C5.11427 22.3462 5.24798 22.2549 5.3598 22.14L21.6398 5.86C21.7547 5.74818 21.846 5.61447 21.9084 5.46676C21.9708 5.31905 22.0029 5.16034 22.0029 5C22.0029 4.83966 21.9708 4.68095 21.9084 4.53324C21.846 4.38553 21.7547 4.25182 21.6398 4.14Z" stroke="url(#paint0_linear_9712_17634)" stroke-width="1.5" stroke-linecap="round" stroke-linejoin="round"/>
<defs>
<linearGradient id="paint0_linear_9712_17634" x1="2.1121" y1="22.5031" x2="22.0365" y2="22.4093" gradientUnits="userSpaceOnUse">
<stop stop-color="#2187FF"/>
<stop offset="1" stop-color="#9918FB"/>
</linearGradient>
</defs>
</svg>
